<?xml version="1.0" standalone="no"?>
<!DOCTYPE svg PUBLIC "-//W3C//DTD SVG 20010904//EN"
 "http://www.w3.org/TR/2001/REC-SVG-20010904/DTD/svg10.dtd">
<svg version="1.0" xmlns="http://www.w3.org/2000/svg"
 width="200.000000pt" height="200.000000pt" viewBox="0 0 200.000000 200.000000"
 preserveAspectRatio="xMidYMid meet">
<metadata>
Created by potrace 1.11, written by Peter Selinger 2001-2013
</metadata>
<g transform="translate(0.000000,200.000000) scale(0.100000,-0.100000)"
fill="#000000" stroke="none">
<path d="M222 1624 c-19 -13 -22 -24 -22 -80 0 -114 -81 -104 804 -104 l765 0
15 22 c10 15 16 45 16 85 0 53 -3 64 -22 77 -20 14 -110 16 -778 16 -668 0
-758 -2 -778 -16z"/>
<path d="M300 1170 c0 -217 1 -231 20 -250 19 -19 33 -20 340 -20 l320 0 0
-151 0 -150 -27 -10 c-43 -15 -68 -57 -68 -111 0 -38 5 -52 29 -77 77 -81 201
-31 201 81 0 50 -28 91 -72 109 -22 8 -23 12 -23 159 l0 150 320 0 c307 0 321
1 340 20 19 19 20 33 20 250 l0 230 -700 0 -700 0 0 -230z m740 -650 c11 -11
20 -29 20 -40 0 -26 -34 -60 -60 -60 -11 0 -29 9 -40 20 -11 11 -20 29 -20 40
0 11 9 29 20 40 11 11 29 20 40 20 11 0 29 -9 40 -20z"/>
</g>
</svg>
